HIERARCHY
ROOT hip
{
  OFFSET 68.5025 83.3683 66.7462
  CHANNELS 6 Xposition Yposition Zposition Zrotation Xrotation Yrotation
  JOINT abdomen
  {
    OFFSET 0 20.6881 -0.73152
    CHANNELS 3 Zrotation Xrotation Yrotation
    JOINT chest
    {
      OFFSET 0 11.7043 -0.48768
      CHANNELS 3 Zrotation Xrotation Yrotation
      JOINT neck
      {
        OFFSET 0 22.1894 -2.19456
        CHANNELS 3 Zrotation Xrotation Yrotation
        JOINT head
        {
          OFFSET -0.24384 7.07133 1.2192
          CHANNELS 3 Zrotation Xrotation Yrotation
          JOINT leftEye
          {
            OFFSET 4.14528 8.04674 8.04672
            CHANNELS 3 Zrotation Xrotation Yrotation
            End Site
            {
              OFFSET 1 0 0
            }
          }
          JOINT rightEye
          {
            OFFSET -3.6576 8.04674 8.04672
            CHANNELS 3 Zrotation Xrotation Yrotation
            End Site
            {
              OFFSET 1 0 0
            }
          }
        }
      }
      JOINT rCollar
      {
        OFFSET -2.68224 19.2634 -4.8768
        CHANNELS 3 Zrotation Xrotation Yrotation
        JOINT rShldr
        {
          OFFSET -8.77824 -1.95073 1.46304
          CHANNELS 3 Zrotation Xrotation Yrotation
          JOINT rForeArm
          {
            OFFSET -28.1742 -1.7115 0.48768
            CHANNELS 3 Zrotation Xrotation Yrotation
            JOINT rHand
            {
              OFFSET -22.5879 0.773209 7.07136
              CHANNELS 3 Zrotation Xrotation Yrotation
              JOINT rThumb1
              {
                OFFSET -1.2192 -0.487915 3.41376
                CHANNELS 3 Zrotation Xrotation Yrotation
                JOINT rThumb2
                {
                  OFFSET -3.37035 -0.52449 3.41376
                  CHANNELS 3 Zrotation Xrotation Yrotation
                  End Site
                  {
                    OFFSET -1.78271 -1.18214 1.43049
                  }
                }
              }
              JOINT rIndex1
              {
                OFFSET -7.75947 0.938293 5.60832
                CHANNELS 3 Zrotation Xrotation Yrotation
                JOINT rIndex2
                {
                  OFFSET -2.54057 -0.884171 1.56538
                  CHANNELS 3 Zrotation Xrotation Yrotation
                  End Site
                  {
                    OFFSET -1.62519 -0.234802 1.16502
                  }
                }
              }
              JOINT rMid1
              {
                OFFSET -8.24714 1.18213 3.41376
                CHANNELS 3 Zrotation Xrotation Yrotation
                JOINT rMid2
                {
                  OFFSET -3.10165 -0.590103 1.0647
                  CHANNELS 3 Zrotation Xrotation Yrotation
                  End Site
                  {
                    OFFSET -2.48547 -0.328903 0.83742
                  }
                }
              }
              JOINT rRing1
              {
                OFFSET -8.82822 0.546677 1.51678
                CHANNELS 3 Zrotation Xrotation Yrotation
                JOINT rRing2
                {
                  OFFSET -2.60934 -0.819778 -0.0198488
                  CHANNELS 3 Zrotation Xrotation Yrotation
                  End Site
                  {
                    OFFSET -2.33842 -0.294052 0.168128
                  }
                }
              }
              JOINT rPinky1
              {
                OFFSET -8.27202 -0.0477905 -0.4584
                CHANNELS 3 Zrotation Xrotation Yrotation
                JOINT rPinky2
                {
                  OFFSET -1.82734 -0.647385 -0.700984
                  CHANNELS 3 Zrotation Xrotation Yrotation
                  End Site
                  {
                    OFFSET -1.69225 -0.51767 -0.607171
                  }
                }
              }
            }
          }
        }
      }
      JOINT lCollar
      {
        OFFSET 2.68224 19.2634 -4.8768
        CHANNELS 3 Zrotation Xrotation Yrotation
        JOINT lShldr
        {
          OFFSET 8.77824 -1.95073 1.46304
          CHANNELS 3 Zrotation Xrotation Yrotation
          JOINT lForeArm
          {
            OFFSET 28.1742 -1.7115 0.48768
            CHANNELS 3 Zrotation Xrotation Yrotation
            JOINT lHand
            {
              OFFSET 22.5879 0.773209 7.07136
              CHANNELS 3 Zrotation Xrotation Yrotation
              JOINT lThumb1
              {
                OFFSET 1.2192 -0.487915 3.41376
                CHANNELS 3 Zrotation Xrotation Yrotation
                JOINT lThumb2
                {
                  OFFSET 3.37035 -0.52449 3.41376
                  CHANNELS 3 Zrotation Xrotation Yrotation
                  End Site
                  {
                    OFFSET 1.78271 -1.18214 1.43049
                  }
                }
              }
              JOINT lIndex1
              {
                OFFSET 7.75947 0.938293 5.60832
                CHANNELS 3 Zrotation Xrotation Yrotation
                JOINT lIndex2
                {
                  OFFSET 2.54057 -0.884171 1.56538
                  CHANNELS 3 Zrotation Xrotation Yrotation
                  End Site
                  {
                    OFFSET 1.62519 -0.234802 1.16502
                  }
                }
              }
              JOINT lMid1
              {
                OFFSET 8.24714 1.18213 3.41376
                CHANNELS 3 Zrotation Xrotation Yrotation
                JOINT lMid2
                {
                  OFFSET 3.10165 -0.590103 1.0647
                  CHANNELS 3 Zrotation Xrotation Yrotation
                  End Site
                  {
                    OFFSET 2.48547 -0.328903 0.83742
                  }
                }
              }
              JOINT lRing1
              {
                OFFSET 8.82822 0.546677 1.51678
                CHANNELS 3 Zrotation Xrotation Yrotation
                JOINT lRing2
                {
                  OFFSET 2.60934 -0.819778 -0.0198488
                  CHANNELS 3 Zrotation Xrotation Yrotation
                  End Site
                  {
                    OFFSET 2.33842 -0.294052 0.168128
                  }
                }
              }
              JOINT lPinky1
              {
                OFFSET 8.27202 -0.0477905 -0.4584
                CHANNELS 3 Zrotation Xrotation Yrotation
                JOINT lPinky2
                {
                  OFFSET 1.82734 -0.647385 -0.700984
                  CHANNELS 3 Zrotation Xrotation Yrotation
                  End Site
                  {
                    OFFSET 1.69225 -0.51767 -0.607171
                  }
                }
              }
            }
          }
        }
      }
    }
  }
  JOINT rButtock
  {
    OFFSET -8.77824 4.35084 1.2192
    CHANNELS 3 Zrotation Xrotation Yrotation
    JOINT rThigh
    {
      OFFSET 0 -1.70687 -2.19456
      CHANNELS 3 Zrotation Xrotation Yrotation
      JOINT rShin
      {
        OFFSET 0 -36.8199 0.73152
        CHANNELS 3 Zrotation Xrotation Yrotation
        JOINT rFoot
        {
          OFFSET 0.73152 -45.1104 -5.12064
          CHANNELS 3 Zrotation Xrotation Yrotation
          End Site
          {
            OFFSET -1.1221 -3.69964 12.103
          }
        }
      }
    }
  }
  JOINT lButtock
  {
    OFFSET 8.77824 4.35084 1.2192
    CHANNELS 3 Zrotation Xrotation Yrotation
    JOINT lThigh
    {
      OFFSET 0 -1.70687 -2.19456
      CHANNELS 3 Zrotation Xrotation Yrotation
      JOINT lShin
      {
        OFFSET 0 -36.8199 0.73152
        CHANNELS 3 Zrotation Xrotation Yrotation
        JOINT lFoot
        {
          OFFSET -0.73152 -45.1104 -5.12064
          CHANNELS 3 Zrotation Xrotation Yrotation
          End Site
          {
            OFFSET 1.1221 -3.69964 12.103
          }
        }
      }
    }
  }
}
MOTION
Frames:	4
Frame Time:	0.00833333
66.1442 125.766 52.8325 32.0398 12.7851 -50.356 -7.11186 -31.3895 0.622232 7.57184 10.9387 -0.0991295 -2.77341 15.1995 -0.407873 9.6249 -19.8581 0.802213 -0 0 0 -0 0 0 9.33909e-013 1.35141e-012 6.26556e-014 67.1486 58.5746 11.9268 -26.3376 -24.3394 58.1716 -0.156148 -11.2163 -1.59687 -3.83282e-009 1.33936e-008 1.14149e-009 -6.61986e-009 2.3069e-008 1.92607e-009 -3.83281e-009 1.33936e-008 1.14148e-009 7.73091 5.47488 0.417314 -3.83282e-009 1.33936e-008 1.14149e-009 2.90554 0.965183 0.102902 -3.83281e-009 1.33936e-008 1.1415e-009 10.2786 0.731801 0.0259123 -3.83282e-009 1.33936e-008 1.1415e-009 2.22167 -0.733487 -0.20892 9.33717e-013 1.35139e-012 6.2373e-014 -23.3953 34.012 19.2769 25.9324 -46.4043 -96.4076 0.475798 -19.2142 2.80766 -3.85761e-009 2.08677e-009 1.02744e-009 -6.68762e-009 3.63246e-009 1.73153e-009 -3.85761e-009 2.08677e-009 1.02745e-009 -7.73091 5.47488 -0.417314 -3.85761e-009 2.08677e-009 1.02744e-009 -2.90554 0.965183 -0.102902 -3.85762e-009 2.08677e-009 1.02744e-009 -10.2786 0.731801 -0.0259123 -3.85761e-009 2.08677e-009 1.02743e-009 -2.22167 -0.733487 0.20892 -2.03217e-016 0 -3.88251e-019 1.86852 -48.2397 1.87202 -0.172494 27.296 0.158392 1.85719 21.6046 -7.38348 2.03217e-016 0 3.88251e-019 -0.913377 -49.6422 -1.75687 0.712607 50.9451 -0.642151 -4.64453 33.8179 10.139 
66.5993 125.787 52.8727 33.2099 11.132 -53.8906 -7.35247 -31.0624 0.988358 7.61043 11.1645 -0.00464038 -2.81446 14.9182 -0.299844 9.54864 -19.8053 1.00527 -0 0 0 -0 0 0 6.73023e-013 9.40952e-013 9.16269e-016 66.3611 57.9861 12.8714 -25.9557 -23.327 56.4956 -0.136396 -10.5023 -1.49276 -2.72523e-009 9.29958e-009 5.64492e-010 -4.70433e-009 1.60242e-008 9.47559e-010 -2.72523e-009 9.29958e-009 5.64476e-010 7.73091 5.47488 0.417314 -2.72524e-009 9.29958e-009 5.64489e-010 2.90554 0.965183 0.102902 -2.72522e-009 9.29959e-009 5.64494e-010 10.2786 0.731801 0.0259123 -2.72524e-009 9.29958e-009 5.64499e-010 2.22167 -0.733487 -0.20892 6.72877e-013 9.40954e-013 6.6157e-016 -21.7253 33.0593 18.4322 26.047 -46.1851 -95.9345 0.4673 -19.0519 2.78204 -2.00375e-009 1.41248e-009 3.31762e-009 -3.51183e-009 2.50499e-009 5.71652e-009 -2.00375e-009 1.41249e-009 3.31763e-009 -7.73091 5.47488 -0.417314 -2.00375e-009 1.41248e-009 3.31762e-009 -2.90554 0.965183 -0.102902 -2.00376e-009 1.41248e-009 3.31762e-009 -10.2786 0.731801 -0.0259123 -2.00374e-009 1.41248e-009 3.31761e-009 -2.22167 -0.733487 0.20892 -2.03217e-016 0 -3.88251e-019 1.23724 -48.2576 0.951808 -0.178545 27.6277 0.149557 2.1324 21.9201 -8.15104 2.03217e-016 0 3.88251e-019 -0.607997 -49.6407 -1.47132 0.705983 50.7769 -0.635457 -4.71504 33.843 10.2594 
67.1133 125.767 52.8742 34.208 9.49345 -57.2285 -7.51642 -30.694 1.27755 7.62674 11.3991 0.0644304 -2.8837 14.638 -0.195549 9.49133 -19.7471 1.20533 -0 0 0 -0 0 0 3.77143e-013 5.0438e-013 -2.86184e-014 65.4774 57.3908 13.8745 -25.542 -22.3139 54.8677 -0.117743 -9.75611 -1.38457 -1.45283e-009 4.20043e-009 -1.35494e-010 -2.50354e-009 7.23738e-009 -2.42038e-010 -1.45282e-009 4.20043e-009 -1.35519e-010 7.73091 5.47488 0.417314 -1.45283e-009 4.20042e-009 -1.35499e-010 2.90554 0.965183 0.102902 -1.45282e-009 4.20043e-009 -1.35494e-010 10.2786 0.731801 0.0259123 -1.45283e-009 4.20043e-009 -1.35488e-010 2.22167 -0.733487 -0.20892 3.77052e-013 5.04401e-013 -2.8842e-014 -20.146 32.1358 17.4408 26.1548 -45.9703 -95.4786 0.456179 -18.8388 2.74845 -1.30284e-010 5.9427e-010 5.08584e-009 -2.95169e-010 1.11716e-009 8.79893e-009 -1.30286e-010 5.94272e-010 5.08585e-009 -7.73091 5.47488 -0.417314 -1.30284e-010 5.9427e-010 5.08584e-009 -2.90554 0.965183 -0.102902 -1.30293e-010 5.9427e-010 5.08583e-009 -10.2786 0.731801 -0.0259123 -1.3028e-010 5.9427e-010 5.08582e-009 -2.22167 -0.733487 0.20892 -2.03217e-016 0 -3.88251e-019 0.551425 -48.2371 -0.102357 -0.183786 27.9108 0.139809 2.40523 22.1948 -8.90493 2.03217e-016 0 3.88251e-019 -0.379715 -49.6607 -1.26005 0.697559 50.5569 -0.627035 -4.76465 33.8608 10.3419 
67.645 125.693 52.9584 35.0775 7.91097 -60.3471 -7.52012 -30.3089 1.59744 7.62901 11.5395 0.13736 -2.98311 14.433 -0.149622 9.50886 -19.7057 1.30272 -0 0 0 -0 0 0 1.9166e-013 2.90507e-013 -6.26172e-015 64.8045 56.6363 14.446 -25.1258 -21.3686 53.3987 -0.101429 -9.04614 -1.28213 -6.51791e-010 7.76849e-010 -6.02753e-010 -1.11824e-009 1.33738e-009 -1.03772e-009 -6.5179e-010 7.7685e-010 -6.02782e-010 7.73091 5.47488 0.417314 -6.51792e-010 7.76847e-010 -6.0276e-010 2.90554 0.965183 0.102902 -6.51784e-010 7.76848e-010 -6.02755e-010 10.2786 0.731801 0.0259123 -6.51796e-010 7.7685e-010 -6.02747e-010 2.22167 -0.733487 -0.20892 1.9161e-013 2.9054e-013 -6.4605e-015 -18.5596 31.4101 16.2065 26.2472 -45.7786 -95.0783 0.452006 -18.7592 2.73589 9.19879e-010 -6.89963e-011 5.47688e-009 1.51631e-009 -2.07913e-011 9.48924e-009 9.19876e-010 -6.8995e-011 5.47689e-009 -7.73091 5.47488 -0.417314 9.19879e-010 -6.89973e-011 5.47688e-009 -2.90554 0.965183 -0.102902 9.1987e-010 -6.89971e-011 5.47688e-009 -10.2786 0.731801 -0.0259123 9.19883e-010 -6.89966e-011 5.47686e-009 -2.22167 -0.733487 0.20892 -2.03217e-016 0 -3.88251e-019 -0.133837 -48.1645 -1.2077 -0.18654 28.0251 0.127398 2.67781 22.4125 -9.65845 2.03217e-016 0 3.88251e-019 -0.178603 -49.7931 -1.11755 0.687937 50.3271 -0.624566 -4.67994 33.9349 10.1377 
